<mxfile host="app.diagrams.net" modified="2023-04-10T08:01:31.679Z" agent="Mozilla/5.0 (Windows NT 10.0; Win64; x64; rv:109.0) Gecko/20100101 Firefox/111.0" etag="lHtXocdac_GRTCthVDpz" version="21.1.5" type="github">
  <diagram name="Sivu-1" id="yN03_GWLSGMEfT3TjBCk">
    <mxGraphModel dx="1764" dy="938" grid="1" gridSize="10" guides="1" tooltips="1" connect="1" arrows="1" fold="1" page="1" pageScale="1" pageWidth="827" pageHeight="1169" math="1" shadow="0">
      <root>
        <mxCell id="0" />
        <mxCell id="1" parent="0" />
        <mxCell id="XcIIXHzs7XvBQjYtd8A8-18" value="" style="endArrow=classic;html=1;rounded=0;entryX=0;entryY=0.5;entryDx=0;entryDy=0;" edge="1" parent="1" target="dgrJLuENhJAnlbSne9Uu-17">
          <mxGeometry width="50" height="50" relative="1" as="geometry">
            <mxPoint x="560" y="360" as="sourcePoint" />
            <mxPoint x="640" y="360" as="targetPoint" />
          </mxGeometry>
        </mxCell>
        <mxCell id="dgrJLuENhJAnlbSne9Uu-13" style="edgeStyle=orthogonalEdgeStyle;rounded=0;orthogonalLoop=1;jettySize=auto;html=1;exitX=1;exitY=0.5;exitDx=0;exitDy=0;entryX=1;entryY=0.5;entryDx=0;entryDy=0;entryPerimeter=0;fontSize=22;" parent="1" source="dgrJLuENhJAnlbSne9Uu-1" target="dgrJLuENhJAnlbSne9Uu-1" edge="1">
          <mxGeometry relative="1" as="geometry" />
        </mxCell>
        <mxCell id="dgrJLuENhJAnlbSne9Uu-1" value="" style="ellipse;whiteSpace=wrap;html=1;aspect=fixed;fontSize=22;" parent="1" vertex="1">
          <mxGeometry x="320" y="320" width="80" height="80" as="geometry" />
        </mxCell>
        <mxCell id="dgrJLuENhJAnlbSne9Uu-2" value="" style="ellipse;whiteSpace=wrap;html=1;aspect=fixed;fontSize=22;" parent="1" vertex="1">
          <mxGeometry x="480" y="320" width="80" height="80" as="geometry" />
        </mxCell>
        <mxCell id="dgrJLuENhJAnlbSne9Uu-11" style="edgeStyle=orthogonalEdgeStyle;rounded=0;orthogonalLoop=1;jettySize=auto;html=1;exitX=0.5;exitY=1;exitDx=0;exitDy=0;entryX=0.5;entryY=0;entryDx=0;entryDy=0;fontSize=22;" parent="1" source="dgrJLuENhJAnlbSne9Uu-7" target="dgrJLuENhJAnlbSne9Uu-1" edge="1">
          <mxGeometry relative="1" as="geometry" />
        </mxCell>
        <mxCell id="dgrJLuENhJAnlbSne9Uu-12" style="edgeStyle=orthogonalEdgeStyle;rounded=0;orthogonalLoop=1;jettySize=auto;html=1;exitX=0.5;exitY=1;exitDx=0;exitDy=0;entryX=0.5;entryY=0;entryDx=0;entryDy=0;fontSize=22;" parent="1" source="dgrJLuENhJAnlbSne9Uu-8" target="dgrJLuENhJAnlbSne9Uu-2" edge="1">
          <mxGeometry relative="1" as="geometry" />
        </mxCell>
        <mxCell id="dgrJLuENhJAnlbSne9Uu-8" value="" style="whiteSpace=wrap;html=1;aspect=fixed;fontSize=22;" parent="1" vertex="1">
          <mxGeometry x="490" y="210" width="60" height="60" as="geometry" />
        </mxCell>
        <mxCell id="dgrJLuENhJAnlbSne9Uu-18" style="edgeStyle=orthogonalEdgeStyle;rounded=0;orthogonalLoop=1;jettySize=auto;html=1;exitX=0.5;exitY=1;exitDx=0;exitDy=0;entryX=0.5;entryY=0;entryDx=0;entryDy=0;fontSize=22;" parent="1" source="dgrJLuENhJAnlbSne9Uu-15" target="dgrJLuENhJAnlbSne9Uu-17" edge="1">
          <mxGeometry relative="1" as="geometry" />
        </mxCell>
        <mxCell id="dgrJLuENhJAnlbSne9Uu-15" value="" style="whiteSpace=wrap;html=1;aspect=fixed;fontSize=22;" parent="1" vertex="1">
          <mxGeometry x="730" y="210" width="60" height="60" as="geometry" />
        </mxCell>
        <mxCell id="XcIIXHzs7XvBQjYtd8A8-46" style="edgeStyle=orthogonalEdgeStyle;rounded=0;orthogonalLoop=1;jettySize=auto;html=1;exitX=0.5;exitY=1;exitDx=0;exitDy=0;entryX=0.5;entryY=0;entryDx=0;entryDy=0;" edge="1" parent="1" source="dgrJLuENhJAnlbSne9Uu-17" target="XcIIXHzs7XvBQjYtd8A8-44">
          <mxGeometry relative="1" as="geometry">
            <mxPoint x="759.9473684210525" y="440" as="targetPoint" />
          </mxGeometry>
        </mxCell>
        <mxCell id="dgrJLuENhJAnlbSne9Uu-17" value="" style="ellipse;whiteSpace=wrap;html=1;aspect=fixed;fontSize=22;" parent="1" vertex="1">
          <mxGeometry x="720" y="320" width="80" height="80" as="geometry" />
        </mxCell>
        <mxCell id="dgrJLuENhJAnlbSne9Uu-35" value="" style="endArrow=classic;html=1;rounded=0;fontSize=36;exitX=0.5;exitY=1;exitDx=0;exitDy=0;" parent="1" source="dgrJLuENhJAnlbSne9Uu-1" edge="1">
          <mxGeometry width="50" height="50" relative="1" as="geometry">
            <mxPoint x="590" y="550" as="sourcePoint" />
            <mxPoint x="360" y="450" as="targetPoint" />
          </mxGeometry>
        </mxCell>
        <mxCell id="dgrJLuENhJAnlbSne9Uu-36" value="" style="endArrow=classic;html=1;rounded=0;fontSize=36;exitX=0.5;exitY=1;exitDx=0;exitDy=0;" parent="1" source="dgrJLuENhJAnlbSne9Uu-2" edge="1">
          <mxGeometry width="50" height="50" relative="1" as="geometry">
            <mxPoint x="630" y="550" as="sourcePoint" />
            <mxPoint x="520" y="450" as="targetPoint" />
          </mxGeometry>
        </mxCell>
        <mxCell id="dgrJLuENhJAnlbSne9Uu-44" value="&lt;div style=&quot;font-size: 22px;&quot;&gt;$$x_2$$&lt;/div&gt;" style="text;html=1;strokeColor=none;fillColor=none;align=center;verticalAlign=middle;whiteSpace=wrap;rounded=0;fontSize=22;" parent="1" vertex="1">
          <mxGeometry x="490" y="225" width="60" height="30" as="geometry" />
        </mxCell>
        <mxCell id="dgrJLuENhJAnlbSne9Uu-45" value="&lt;div style=&quot;font-size: 22px;&quot;&gt;$$x_k$$&lt;/div&gt;" style="text;html=1;strokeColor=none;fillColor=none;align=center;verticalAlign=middle;whiteSpace=wrap;rounded=0;fontSize=22;" parent="1" vertex="1">
          <mxGeometry x="730" y="225" width="60" height="30" as="geometry" />
        </mxCell>
        <mxCell id="dgrJLuENhJAnlbSne9Uu-48" value="&lt;div style=&quot;font-size: 22px;&quot;&gt;$$h_1$$&lt;/div&gt;" style="text;html=1;strokeColor=none;fillColor=none;align=center;verticalAlign=middle;whiteSpace=wrap;rounded=0;fontSize=22;" parent="1" vertex="1">
          <mxGeometry x="410" y="330" width="60" height="30" as="geometry" />
        </mxCell>
        <mxCell id="dgrJLuENhJAnlbSne9Uu-53" value="&lt;div style=&quot;font-size: 22px;&quot;&gt;$$h_2$$&lt;/div&gt;" style="text;html=1;strokeColor=none;fillColor=none;align=center;verticalAlign=middle;whiteSpace=wrap;rounded=0;fontSize=22;" parent="1" vertex="1">
          <mxGeometry x="560" y="330" width="60" height="30" as="geometry" />
        </mxCell>
        <mxCell id="dgrJLuENhJAnlbSne9Uu-54" value="&lt;div style=&quot;font-size: 22px;&quot;&gt;$$h_{k-1}$$&lt;/div&gt;" style="text;html=1;strokeColor=none;fillColor=none;align=center;verticalAlign=middle;whiteSpace=wrap;rounded=0;fontSize=22;" parent="1" vertex="1">
          <mxGeometry x="654" y="330" width="60" height="30" as="geometry" />
        </mxCell>
        <mxCell id="XcIIXHzs7XvBQjYtd8A8-6" value="" style="group" vertex="1" connectable="0" parent="1">
          <mxGeometry x="330" y="210" width="60" height="60" as="geometry" />
        </mxCell>
        <mxCell id="dgrJLuENhJAnlbSne9Uu-7" value="" style="whiteSpace=wrap;html=1;aspect=fixed;fontSize=22;" parent="XcIIXHzs7XvBQjYtd8A8-6" vertex="1">
          <mxGeometry width="60" height="60" as="geometry" />
        </mxCell>
        <mxCell id="dgrJLuENhJAnlbSne9Uu-43" value="&lt;div style=&quot;font-size: 22px;&quot;&gt;$$x_1$$&lt;/div&gt;" style="text;html=1;strokeColor=none;fillColor=none;align=center;verticalAlign=middle;whiteSpace=wrap;rounded=0;fontSize=22;" parent="XcIIXHzs7XvBQjYtd8A8-6" vertex="1">
          <mxGeometry y="15" width="60" height="30" as="geometry" />
        </mxCell>
        <mxCell id="XcIIXHzs7XvBQjYtd8A8-7" value="" style="group" vertex="1" connectable="0" parent="1">
          <mxGeometry x="330" y="450" width="60" height="60" as="geometry" />
        </mxCell>
        <mxCell id="XcIIXHzs7XvBQjYtd8A8-8" value="" style="whiteSpace=wrap;html=1;aspect=fixed;fontSize=22;" vertex="1" parent="XcIIXHzs7XvBQjYtd8A8-7">
          <mxGeometry width="60" height="60" as="geometry" />
        </mxCell>
        <mxCell id="XcIIXHzs7XvBQjYtd8A8-9" value="&lt;div style=&quot;font-size: 22px;&quot;&gt;$$y_1$$&lt;/div&gt;" style="text;html=1;strokeColor=none;fillColor=none;align=center;verticalAlign=middle;whiteSpace=wrap;rounded=0;fontSize=22;" vertex="1" parent="XcIIXHzs7XvBQjYtd8A8-7">
          <mxGeometry y="15" width="60" height="30" as="geometry" />
        </mxCell>
        <mxCell id="XcIIXHzs7XvBQjYtd8A8-10" value="" style="group" vertex="1" connectable="0" parent="1">
          <mxGeometry x="490" y="450" width="60" height="60" as="geometry" />
        </mxCell>
        <mxCell id="XcIIXHzs7XvBQjYtd8A8-11" value="" style="whiteSpace=wrap;html=1;aspect=fixed;fontSize=22;" vertex="1" parent="XcIIXHzs7XvBQjYtd8A8-10">
          <mxGeometry width="60" height="60" as="geometry" />
        </mxCell>
        <mxCell id="XcIIXHzs7XvBQjYtd8A8-12" value="&lt;div style=&quot;font-size: 22px;&quot;&gt;$$y_2$$&lt;/div&gt;" style="text;html=1;strokeColor=none;fillColor=none;align=center;verticalAlign=middle;whiteSpace=wrap;rounded=0;fontSize=22;" vertex="1" parent="XcIIXHzs7XvBQjYtd8A8-10">
          <mxGeometry y="15" width="60" height="30" as="geometry" />
        </mxCell>
        <mxCell id="XcIIXHzs7XvBQjYtd8A8-13" value="&lt;font style=&quot;font-size: 22px;&quot;&gt;$$\dots$$&lt;/font&gt;" style="text;html=1;strokeColor=none;fillColor=default;align=center;verticalAlign=middle;whiteSpace=wrap;rounded=0;" vertex="1" parent="1">
          <mxGeometry x="614" y="340" width="40" height="30" as="geometry" />
        </mxCell>
        <mxCell id="XcIIXHzs7XvBQjYtd8A8-14" value="" style="endArrow=classic;html=1;rounded=0;entryX=0;entryY=0.5;entryDx=0;entryDy=0;" edge="1" parent="1" target="dgrJLuENhJAnlbSne9Uu-1">
          <mxGeometry width="50" height="50" relative="1" as="geometry">
            <mxPoint x="240" y="360" as="sourcePoint" />
            <mxPoint x="570" y="330" as="targetPoint" />
          </mxGeometry>
        </mxCell>
        <mxCell id="XcIIXHzs7XvBQjYtd8A8-15" value="&lt;div style=&quot;font-size: 22px;&quot;&gt;$$h_0$$&lt;/div&gt;" style="text;html=1;strokeColor=none;fillColor=none;align=center;verticalAlign=middle;whiteSpace=wrap;rounded=0;fontSize=22;" vertex="1" parent="1">
          <mxGeometry x="250" y="330" width="60" height="30" as="geometry" />
        </mxCell>
        <mxCell id="XcIIXHzs7XvBQjYtd8A8-17" value="" style="endArrow=classic;html=1;rounded=0;entryX=0;entryY=0.5;entryDx=0;entryDy=0;" edge="1" parent="1">
          <mxGeometry width="50" height="50" relative="1" as="geometry">
            <mxPoint x="400" y="360" as="sourcePoint" />
            <mxPoint x="480" y="360" as="targetPoint" />
          </mxGeometry>
        </mxCell>
        <mxCell id="XcIIXHzs7XvBQjYtd8A8-22" value="" style="endArrow=none;html=1;rounded=0;entryX=1;entryY=0;entryDx=0;entryDy=0;exitX=0;exitY=1;exitDx=0;exitDy=0;" edge="1" parent="1" source="dgrJLuENhJAnlbSne9Uu-1" target="dgrJLuENhJAnlbSne9Uu-1">
          <mxGeometry width="50" height="50" relative="1" as="geometry">
            <mxPoint x="335" y="390" as="sourcePoint" />
            <mxPoint x="385" y="340" as="targetPoint" />
          </mxGeometry>
        </mxCell>
        <mxCell id="XcIIXHzs7XvBQjYtd8A8-23" value="" style="endArrow=none;html=1;rounded=0;entryX=1;entryY=0;entryDx=0;entryDy=0;exitX=0;exitY=1;exitDx=0;exitDy=0;" edge="1" parent="1" source="dgrJLuENhJAnlbSne9Uu-2" target="dgrJLuENhJAnlbSne9Uu-2">
          <mxGeometry width="50" height="50" relative="1" as="geometry">
            <mxPoint x="494" y="388" as="sourcePoint" />
            <mxPoint x="550" y="332" as="targetPoint" />
          </mxGeometry>
        </mxCell>
        <mxCell id="XcIIXHzs7XvBQjYtd8A8-24" value="" style="endArrow=none;html=1;rounded=0;entryX=1;entryY=0;entryDx=0;entryDy=0;exitX=0;exitY=1;exitDx=0;exitDy=0;" edge="1" parent="1">
          <mxGeometry width="50" height="50" relative="1" as="geometry">
            <mxPoint x="732" y="388" as="sourcePoint" />
            <mxPoint x="788" y="332" as="targetPoint" />
          </mxGeometry>
        </mxCell>
        <mxCell id="XcIIXHzs7XvBQjYtd8A8-25" style="edgeStyle=orthogonalEdgeStyle;rounded=0;orthogonalLoop=1;jettySize=auto;html=1;exitX=1;exitY=0.5;exitDx=0;exitDy=0;entryX=1;entryY=0.5;entryDx=0;entryDy=0;entryPerimeter=0;fontSize=22;" edge="1" parent="1" source="XcIIXHzs7XvBQjYtd8A8-26" target="XcIIXHzs7XvBQjYtd8A8-26">
          <mxGeometry relative="1" as="geometry" />
        </mxCell>
        <mxCell id="XcIIXHzs7XvBQjYtd8A8-26" value="" style="ellipse;whiteSpace=wrap;html=1;aspect=fixed;fontSize=22;" vertex="1" parent="1">
          <mxGeometry x="20" y="320" width="80" height="80" as="geometry" />
        </mxCell>
        <mxCell id="XcIIXHzs7XvBQjYtd8A8-27" style="edgeStyle=orthogonalEdgeStyle;rounded=0;orthogonalLoop=1;jettySize=auto;html=1;exitX=0.5;exitY=1;exitDx=0;exitDy=0;entryX=0.5;entryY=0;entryDx=0;entryDy=0;fontSize=22;" edge="1" parent="1" source="XcIIXHzs7XvBQjYtd8A8-30" target="XcIIXHzs7XvBQjYtd8A8-26">
          <mxGeometry relative="1" as="geometry" />
        </mxCell>
        <mxCell id="XcIIXHzs7XvBQjYtd8A8-28" value="" style="endArrow=classic;html=1;rounded=0;fontSize=36;exitX=0.5;exitY=1;exitDx=0;exitDy=0;" edge="1" parent="1" source="XcIIXHzs7XvBQjYtd8A8-26">
          <mxGeometry width="50" height="50" relative="1" as="geometry">
            <mxPoint x="290" y="550" as="sourcePoint" />
            <mxPoint x="60" y="450" as="targetPoint" />
          </mxGeometry>
        </mxCell>
        <mxCell id="XcIIXHzs7XvBQjYtd8A8-29" value="" style="group" vertex="1" connectable="0" parent="1">
          <mxGeometry x="30" y="210" width="60" height="60" as="geometry" />
        </mxCell>
        <mxCell id="XcIIXHzs7XvBQjYtd8A8-30" value="" style="whiteSpace=wrap;html=1;aspect=fixed;fontSize=22;" vertex="1" parent="XcIIXHzs7XvBQjYtd8A8-29">
          <mxGeometry width="60" height="60" as="geometry" />
        </mxCell>
        <mxCell id="XcIIXHzs7XvBQjYtd8A8-31" value="&lt;div style=&quot;font-size: 22px;&quot;&gt;$$x_i$$&lt;/div&gt;" style="text;html=1;strokeColor=none;fillColor=none;align=center;verticalAlign=middle;whiteSpace=wrap;rounded=0;fontSize=22;" vertex="1" parent="XcIIXHzs7XvBQjYtd8A8-29">
          <mxGeometry y="15" width="60" height="30" as="geometry" />
        </mxCell>
        <mxCell id="XcIIXHzs7XvBQjYtd8A8-32" value="" style="group" vertex="1" connectable="0" parent="1">
          <mxGeometry x="30" y="450" width="60" height="60" as="geometry" />
        </mxCell>
        <mxCell id="XcIIXHzs7XvBQjYtd8A8-33" value="" style="whiteSpace=wrap;html=1;aspect=fixed;fontSize=22;" vertex="1" parent="XcIIXHzs7XvBQjYtd8A8-32">
          <mxGeometry width="60" height="60" as="geometry" />
        </mxCell>
        <mxCell id="XcIIXHzs7XvBQjYtd8A8-34" value="&lt;div style=&quot;font-size: 22px;&quot;&gt;$$y_i$$&lt;/div&gt;" style="text;html=1;strokeColor=none;fillColor=none;align=center;verticalAlign=middle;whiteSpace=wrap;rounded=0;fontSize=22;" vertex="1" parent="XcIIXHzs7XvBQjYtd8A8-32">
          <mxGeometry y="15" width="60" height="30" as="geometry" />
        </mxCell>
        <mxCell id="XcIIXHzs7XvBQjYtd8A8-35" value="" style="endArrow=none;html=1;rounded=0;entryX=1;entryY=0;entryDx=0;entryDy=0;exitX=0;exitY=1;exitDx=0;exitDy=0;" edge="1" parent="1" source="XcIIXHzs7XvBQjYtd8A8-26" target="XcIIXHzs7XvBQjYtd8A8-26">
          <mxGeometry width="50" height="50" relative="1" as="geometry">
            <mxPoint x="35" y="390" as="sourcePoint" />
            <mxPoint x="85" y="340" as="targetPoint" />
          </mxGeometry>
        </mxCell>
        <mxCell id="XcIIXHzs7XvBQjYtd8A8-36" value="" style="curved=1;endArrow=classic;html=1;rounded=0;exitX=1;exitY=1;exitDx=0;exitDy=0;entryX=0.734;entryY=0.029;entryDx=0;entryDy=0;entryPerimeter=0;" edge="1" parent="1" source="XcIIXHzs7XvBQjYtd8A8-26" target="XcIIXHzs7XvBQjYtd8A8-26">
          <mxGeometry width="50" height="50" relative="1" as="geometry">
            <mxPoint x="180" y="390" as="sourcePoint" />
            <mxPoint x="120" y="280" as="targetPoint" />
            <Array as="points">
              <mxPoint x="130" y="400" />
              <mxPoint x="160" y="340" />
              <mxPoint x="110" y="300" />
            </Array>
          </mxGeometry>
        </mxCell>
        <mxCell id="XcIIXHzs7XvBQjYtd8A8-37" value="&lt;div style=&quot;font-size: 22px;&quot;&gt;$$h_i$$&lt;/div&gt;" style="text;html=1;strokeColor=none;fillColor=none;align=center;verticalAlign=middle;whiteSpace=wrap;rounded=0;fontSize=22;" vertex="1" parent="1">
          <mxGeometry x="120" y="290" width="60" height="30" as="geometry" />
        </mxCell>
        <mxCell id="XcIIXHzs7XvBQjYtd8A8-43" value="" style="group" vertex="1" connectable="0" parent="1">
          <mxGeometry x="730" y="450" width="60" height="60" as="geometry" />
        </mxCell>
        <mxCell id="XcIIXHzs7XvBQjYtd8A8-44" value="" style="whiteSpace=wrap;html=1;aspect=fixed;fontSize=22;" vertex="1" parent="XcIIXHzs7XvBQjYtd8A8-43">
          <mxGeometry width="60" height="60" as="geometry" />
        </mxCell>
        <mxCell id="XcIIXHzs7XvBQjYtd8A8-45" value="&lt;div style=&quot;font-size: 22px;&quot;&gt;$$y_k$$&lt;/div&gt;" style="text;html=1;strokeColor=none;fillColor=none;align=center;verticalAlign=middle;whiteSpace=wrap;rounded=0;fontSize=22;" vertex="1" parent="XcIIXHzs7XvBQjYtd8A8-43">
          <mxGeometry y="15" width="60" height="30" as="geometry" />
        </mxCell>
        <mxCell id="XcIIXHzs7XvBQjYtd8A8-48" value="" style="curved=1;endArrow=classic;html=1;rounded=0;strokeWidth=3;" edge="1" parent="1">
          <mxGeometry width="50" height="50" relative="1" as="geometry">
            <mxPoint x="130" y="450" as="sourcePoint" />
            <mxPoint x="130" y="430" as="targetPoint" />
            <Array as="points">
              <mxPoint x="150" y="470" />
              <mxPoint x="180" y="440" />
              <mxPoint x="150" y="410" />
            </Array>
          </mxGeometry>
        </mxCell>
        <mxCell id="XcIIXHzs7XvBQjYtd8A8-49" value="&lt;font style=&quot;font-size: 22px;&quot;&gt;Aika&lt;/font&gt;" style="text;html=1;strokeColor=none;fillColor=none;align=center;verticalAlign=middle;whiteSpace=wrap;rounded=0;" vertex="1" parent="1">
          <mxGeometry x="180" y="420" width="60" height="30" as="geometry" />
        </mxCell>
        <mxCell id="XcIIXHzs7XvBQjYtd8A8-47" value="" style="endArrow=classic;html=1;rounded=0;strokeWidth=3;" edge="1" parent="1">
          <mxGeometry width="50" height="50" relative="1" as="geometry">
            <mxPoint x="584" y="430" as="sourcePoint" />
            <mxPoint x="714" y="430" as="targetPoint" />
          </mxGeometry>
        </mxCell>
        <mxCell id="XcIIXHzs7XvBQjYtd8A8-50" value="&lt;font style=&quot;font-size: 22px;&quot;&gt;Aika&lt;/font&gt;" style="text;html=1;strokeColor=none;fillColor=none;align=center;verticalAlign=middle;whiteSpace=wrap;rounded=0;" vertex="1" parent="1">
          <mxGeometry x="614" y="440" width="60" height="30" as="geometry" />
        </mxCell>
      </root>
    </mxGraphModel>
  </diagram>
</mxfile>
